<svg width="44" height="39" viewBox="0 0 44 39" fill="none" xmlns="http://www.w3.org/2000/svg">
<path d="M39.6802 4.22023C38.6587 3.19824 37.4459 2.38753 36.1109 1.8344C34.776 1.28128 33.3452 0.996582 31.9002 0.996582C30.4553 0.996582 29.0244 1.28128 27.6895 1.8344C26.3546 2.38753 25.1417 3.19824 24.1202 4.22023L22.0002 6.34023L19.8802 4.22023C17.8169 2.15685 15.0183 0.997652 12.1002 0.997652C9.18217 0.997652 6.38362 2.15685 4.32024 4.22023C2.25685 6.28362 1.09766 9.08217 1.09766 12.0002C1.09766 14.9183 2.25685 17.7168 4.32024 19.7802L6.44024 21.9002L22.0002 37.4602L37.5602 21.9002L39.6802 19.7802C40.7022 18.7587 41.5129 17.5459 42.0661 16.2109C42.6192 14.876 42.9039 13.4452 42.9039 12.0002C42.9039 10.5553 42.6192 9.12444 42.0661 7.78952C41.5129 6.4546 40.7022 5.24175 39.6802 4.22023V4.22023Z" stroke="#4E4E4E" stroke-width="2" stroke-linecap="round" stroke-linejoin="round"/>
</svg>
